<svg xmlns="http://www.w3.org/2000/svg" viewBox="0 0 1600 900" fill="none">
  <g stroke="#1b2550" stroke-opacity="0.14" stroke-width="1.2">
    <line x1="120" y1="180" x2="340" y2="90"></line>
    <line x1="340" y1="90" x2="560" y2="200"></line>
    <line x1="340" y1="90" x2="300" y2="320"></line>
    <line x1="560" y1="200" x2="760" y2="120"></line>
    <line x1="560" y1="200" x2="620" y2="400"></line>
    <line x1="300" y1="320" x2="620" y2="400"></line>
    <line x1="300" y1="320" x2="140" y2="480"></line>
    <line x1="620" y1="400" x2="880" y2="360"></line>
    <line x1="620" y1="400" x2="700" y2="600"></line>
    <line x1="760" y1="120" x2="980" y2="180"></line>
    <line x1="880" y1="360" x2="980" y2="180"></line>
    <line x1="880" y1="360" x2="1120" y2="420"></line>
    <line x1="1120" y1="420" x2="1300" y2="340"></line>
    <line x1="1120" y1="420" x2="1180" y2="600"></line>
    <line x1="700" y1="600" x2="900" y2="700"></line>
    <line x1="900" y1="700" x2="1180" y2="600"></line>
    <line x1="140" y1="480" x2="220" y2="680"></line>
    <line x1="220" y1="680" x2="480" y2="740"></line>
    <line x1="480" y1="740" x2="700" y2="600"></line>
    <line x1="980" y1="180" x2="1220" y2="120"></line>
    <line x1="1300" y1="340" x2="1460" y2="260"></line>
    <line x1="1300" y1="340" x2="1420" y2="480"></line>
  </g>
  <g fill="#3b5cf5">
    <circle cx="340" cy="90" r="4"></circle>
    <circle cx="760" cy="120" r="3"></circle>
    <circle cx="980" cy="180" r="4"></circle>
    <circle cx="1220" cy="120" r="3"></circle>
  </g>
  <g fill="#8b85e8">
    <circle cx="560" cy="200" r="4"></circle>
    <circle cx="300" cy="320" r="3"></circle>
    <circle cx="620" cy="400" r="5"></circle>
    <circle cx="1120" cy="420" r="4"></circle>
  </g>
  <g fill="#4fceac">
    <circle cx="880" cy="360" r="4"></circle>
    <circle cx="700" cy="600" r="4"></circle>
    <circle cx="900" cy="700" r="3"></circle>
    <circle cx="480" cy="740" r="3"></circle>
  </g>
  <g fill="#4fc1d9">
    <circle cx="120" cy="180" r="3"></circle>
    <circle cx="140" cy="480" r="3"></circle>
    <circle cx="220" cy="680" r="3"></circle>
    <circle cx="1300" cy="340" r="4"></circle>
    <circle cx="1180" cy="600" r="3"></circle>
    <circle cx="1460" cy="260" r="3"></circle>
    <circle cx="1420" cy="480" r="3"></circle>
  </g>
</svg>